<svg width="800" height="520" viewBox="0 0 800 520" fill="none" xmlns="http://www.w3.org/2000/svg">
  <rect width="800" height="520" rx="36" fill="url(#bg)"/>
  <circle cx="124" cy="132" r="120" fill="url(#glow1)" fill-opacity="0.5"/>
  <circle cx="662" cy="404" r="142" fill="url(#glow2)" fill-opacity="0.42"/>
  <rect x="82" y="96" width="636" height="328" rx="34" fill="#F8FAFC" fill-opacity="0.93" stroke="#0F172A" stroke-opacity="0.08"/>
  <circle cx="214" cy="204" r="44" fill="#10B981" fill-opacity="0.14"/>
  <circle cx="214" cy="192" r="20" fill="#10B981"/>
  <path d="M176 252C186 222 204 208 226 208C248 208 266 222 276 252" stroke="#10B981" stroke-width="14" stroke-linecap="round"/>
  <circle cx="402" cy="204" r="44" fill="#38BDF8" fill-opacity="0.14"/>
  <circle cx="402" cy="192" r="20" fill="#0EA5E9"/>
  <path d="M364 252C374 222 392 208 414 208C436 208 454 222 464 252" stroke="#0EA5E9" stroke-width="14" stroke-linecap="round"/>
  <circle cx="590" cy="204" r="44" fill="#8B5CF6" fill-opacity="0.14"/>
  <circle cx="590" cy="192" r="20" fill="#8B5CF6"/>
  <path d="M552 252C562 222 580 208 602 208C624 208 642 222 652 252" stroke="#8B5CF6" stroke-width="14" stroke-linecap="round"/>
  <rect x="144" y="312" width="512" height="70" rx="22" fill="#0F172A" fill-opacity="0.06"/>
  <rect x="178" y="332" width="126" height="18" rx="9" fill="#0F172A" fill-opacity="0.14"/>
  <rect x="324" y="332" width="102" height="18" rx="9" fill="#0F172A" fill-opacity="0.14"/>
  <rect x="446" y="332" width="146" height="18" rx="9" fill="#0F172A" fill-opacity="0.14"/>
  <rect x="614" y="326" width="24" height="24" rx="12" fill="#10B981"/>
  <path d="M620 338L626 344L634 334" stroke="#ECFDF5" stroke-width="4" stroke-linecap="round" stroke-linejoin="round"/>
  <defs>
    <linearGradient id="bg" x1="52" y1="48" x2="748" y2="488" gradientUnits="userSpaceOnUse">
      <stop stop-color="#0F172A"/>
      <stop offset="0.64" stop-color="#111827"/>
      <stop offset="1" stop-color="#0B1120"/>
    </linearGradient>
    <radialGradient id="glow1" cx="0" cy="0" r="1" gradientUnits="userSpaceOnUse" gradientTransform="translate(124 132) rotate(90) scale(120)">
      <stop stop-color="#10B981"/>
      <stop offset="1" stop-color="#10B981" stop-opacity="0"/>
    </radialGradient>
    <radialGradient id="glow2" cx="0" cy="0" r="1" gradientUnits="userSpaceOnUse" gradientTransform="translate(662 404) rotate(90) scale(142)">
      <stop stop-color="#38BDF8"/>
      <stop offset="1" stop-color="#38BDF8" stop-opacity="0"/>
    </radialGradient>
  </defs>
</svg>
