<svg width="800" height="520" viewBox="0 0 800 520" fill="none" xmlns="http://www.w3.org/2000/svg">
  <rect width="800" height="520" rx="36" fill="url(#bg)"/>
  <circle cx="672" cy="96" r="132" fill="url(#glow1)" fill-opacity="0.6"/>
  <circle cx="152" cy="436" r="120" fill="url(#glow2)" fill-opacity="0.55"/>
  <rect x="72" y="92" width="318" height="244" rx="28" fill="#0F172A" fill-opacity="0.92" stroke="#34D399" stroke-opacity="0.25"/>
  <rect x="110" y="128" width="160" height="96" rx="24" fill="#ECFDF5"/>
  <circle cx="148" cy="176" r="22" fill="#34D399" fill-opacity="0.18"/>
  <path d="M138 176L146 184L160 168" stroke="#10B981" stroke-width="10" stroke-linecap="round" stroke-linejoin="round"/>
  <rect x="180" y="154" width="56" height="10" rx="5" fill="#10B981" fill-opacity="0.7"/>
  <rect x="180" y="178" width="76" height="10" rx="5" fill="#A7F3D0"/>
  <rect x="110" y="246" width="244" height="22" rx="11" fill="#1E293B"/>
  <rect x="110" y="280" width="198" height="18" rx="9" fill="#1E293B" fill-opacity="0.85"/>
  <rect x="452" y="116" width="272" height="296" rx="30" fill="#F8FAFC" fill-opacity="0.9" stroke="#0F172A" stroke-opacity="0.08"/>
  <rect x="490" y="154" width="196" height="24" rx="12" fill="#0F172A" fill-opacity="0.1"/>
  <rect x="490" y="196" width="152" height="18" rx="9" fill="#0F172A" fill-opacity="0.08"/>
  <rect x="490" y="228" width="176" height="18" rx="9" fill="#0F172A" fill-opacity="0.08"/>
  <rect x="490" y="260" width="130" height="18" rx="9" fill="#0F172A" fill-opacity="0.08"/>
  <rect x="490" y="316" width="92" height="54" rx="20" fill="#10B981"/>
  <circle cx="536" cy="343" r="18" fill="#ECFDF5"/>
  <path d="M527 343L533 349L545 336" stroke="#10B981" stroke-width="7" stroke-linecap="round" stroke-linejoin="round"/>
  <rect x="608" y="320" width="78" height="46" rx="18" fill="#0F172A" fill-opacity="0.92"/>
  <circle cx="634" cy="344" r="8" fill="#34D399"/>
  <circle cx="658" cy="344" r="8" fill="#A7F3D0"/>
  <rect x="150" y="364" width="120" height="44" rx="22" fill="#10B981"/>
  <circle cx="190" cy="386" r="12" fill="#ECFDF5"/>
  <path d="M184 386L189 391L198 380" stroke="#10B981" stroke-width="5" stroke-linecap="round" stroke-linejoin="round"/>
  <defs>
    <linearGradient id="bg" x1="64" y1="44" x2="736" y2="492" gradientUnits="userSpaceOnUse">
      <stop stop-color="#0F172A"/>
      <stop offset="0.55" stop-color="#111827"/>
      <stop offset="1" stop-color="#0B1120"/>
    </linearGradient>
    <radialGradient id="glow1" cx="0" cy="0" r="1" gradientUnits="userSpaceOnUse" gradientTransform="translate(672 96) rotate(90) scale(132)">
      <stop stop-color="#34D399"/>
      <stop offset="1" stop-color="#34D399" stop-opacity="0"/>
    </radialGradient>
    <radialGradient id="glow2" cx="0" cy="0" r="1" gradientUnits="userSpaceOnUse" gradientTransform="translate(152 436) rotate(90) scale(120)">
      <stop stop-color="#38BDF8"/>
      <stop offset="1" stop-color="#38BDF8" stop-opacity="0"/>
    </radialGradient>
  </defs>
</svg>
