<svg width="800" height="520" viewBox="0 0 800 520" fill="none" xmlns="http://www.w3.org/2000/svg">
  <rect width="800" height="520" rx="36" fill="url(#bg)"/>
  <circle cx="654" cy="104" r="126" fill="url(#glow1)" fill-opacity="0.52"/>
  <circle cx="154" cy="406" r="132" fill="url(#glow2)" fill-opacity="0.44"/>
  <rect x="96" y="100" width="268" height="308" rx="34" fill="#F8FAFC" fill-opacity="0.92" stroke="#0F172A" stroke-opacity="0.08"/>
  <rect x="138" y="144" width="184" height="34" rx="17" fill="#0F172A" fill-opacity="0.08"/>
  <rect x="138" y="198" width="122" height="18" rx="9" fill="#0F172A" fill-opacity="0.1"/>
  <rect x="138" y="228" width="150" height="18" rx="9" fill="#0F172A" fill-opacity="0.1"/>
  <rect x="138" y="258" width="110" height="18" rx="9" fill="#0F172A" fill-opacity="0.1"/>
  <rect x="138" y="312" width="112" height="56" rx="22" fill="#0F172A" fill-opacity="0.94"/>
  <rect x="268" y="312" width="54" height="56" rx="20" fill="#10B981"/>
  <circle cx="295" cy="340" r="12" fill="#ECFDF5"/>
  <path d="M289 340L294 345L302 334" stroke="#10B981" stroke-width="5" stroke-linecap="round" stroke-linejoin="round"/>
  <rect x="428" y="122" width="278" height="286" rx="34" fill="#0F172A" fill-opacity="0.94" stroke="#38BDF8" stroke-opacity="0.22"/>
  <rect x="468" y="166" width="198" height="102" rx="24" fill="#E0F2FE"/>
  <rect x="468" y="292" width="122" height="78" rx="22" fill="#F8FAFC"/>
  <rect x="606" y="292" width="60" height="78" rx="22" fill="#8B5CF6"/>
  <circle cx="636" cy="330" r="14" fill="#EDE9FE"/>
  <path d="M628 330L634 336L646 324" stroke="#8B5CF6" stroke-width="5" stroke-linecap="round" stroke-linejoin="round"/>
  <rect x="506" y="192" width="124" height="16" rx="8" fill="#0F172A" fill-opacity="0.14"/>
  <rect x="506" y="220" width="98" height="14" rx="7" fill="#0F172A" fill-opacity="0.12"/>
  <defs>
    <linearGradient id="bg" x1="40" y1="42" x2="752" y2="490" gradientUnits="userSpaceOnUse">
      <stop stop-color="#0F172A"/>
      <stop offset="0.6" stop-color="#111827"/>
      <stop offset="1" stop-color="#172554"/>
    </linearGradient>
    <radialGradient id="glow1" cx="0" cy="0" r="1" gradientUnits="userSpaceOnUse" gradientTransform="translate(654 104) rotate(90) scale(126)">
      <stop stop-color="#38BDF8"/>
      <stop offset="1" stop-color="#38BDF8" stop-opacity="0"/>
    </radialGradient>
    <radialGradient id="glow2" cx="0" cy="0" r="1" gradientUnits="userSpaceOnUse" gradientTransform="translate(154 406) rotate(90) scale(132)">
      <stop stop-color="#10B981"/>
      <stop offset="1" stop-color="#10B981" stop-opacity="0"/>
    </radialGradient>
  </defs>
</svg>
